<mxfile host="app.diagrams.net" agent="Mozilla/5.0 (Windows NT 10.0; Win64; x64) AppleWebKit/537.36 (KHTML, like Gecko) Chrome/129.0.0.0 Safari/537.36" version="24.8.0">
  <diagram name="Page-1" id="-H_mtQnk-PTXWXPvYvuk">
    <mxGraphModel dx="5740" dy="3367" grid="1" gridSize="10" guides="1" tooltips="1" connect="1" arrows="0" fold="1" page="1" pageScale="1" pageWidth="4681" pageHeight="3300" math="0" shadow="0">
      <root>
        <mxCell id="0" />
        <mxCell id="1" parent="0" />
        <mxCell id="fnRWYfsaQO0EPqaBbEek-6" value="" style="rounded=0;whiteSpace=wrap;html=1;align=left;" parent="1" vertex="1">
          <mxGeometry x="95" y="330" width="705" height="550" as="geometry" />
        </mxCell>
        <mxCell id="fnRWYfsaQO0EPqaBbEek-3" value="" style="rounded=0;whiteSpace=wrap;html=1;align=left;" parent="1" vertex="1">
          <mxGeometry x="95" y="40" width="705" height="250" as="geometry" />
        </mxCell>
        <mxCell id="zA23MoTUsTF4_91t8viU-2" value="MongoDB" style="shape=cylinder3;whiteSpace=wrap;html=1;boundedLbl=1;backgroundOutline=1;size=15;" parent="1" vertex="1">
          <mxGeometry x="560" y="110" width="60" height="80" as="geometry" />
        </mxCell>
        <mxCell id="zA23MoTUsTF4_91t8viU-3" value="pymongo-api" style="rounded=1;whiteSpace=wrap;html=1;" parent="1" vertex="1">
          <mxGeometry x="360" y="120" width="120" height="60" as="geometry" />
        </mxCell>
        <mxCell id="zA23MoTUsTF4_91t8viU-4" style="edgeStyle=orthogonalEdgeStyle;rounded=0;orthogonalLoop=1;jettySize=auto;html=1;exitX=1;exitY=0.5;exitDx=0;exitDy=0;entryX=0;entryY=0.5;entryDx=0;entryDy=0;entryPerimeter=0;" parent="1" source="zA23MoTUsTF4_91t8viU-3" target="zA23MoTUsTF4_91t8viU-2" edge="1">
          <mxGeometry relative="1" as="geometry" />
        </mxCell>
        <mxCell id="gZ_beA-vXtJLZaEBM_sQ-8" value="pymongo-api" style="rounded=1;whiteSpace=wrap;html=1;" parent="1" vertex="1">
          <mxGeometry x="320" y="410" width="120" height="60" as="geometry" />
        </mxCell>
        <mxCell id="gZ_beA-vXtJLZaEBM_sQ-9" style="edgeStyle=orthogonalEdgeStyle;rounded=0;orthogonalLoop=1;jettySize=auto;html=1;exitX=0.5;exitY=1;exitDx=0;exitDy=0;" parent="1" source="gZ_beA-vXtJLZaEBM_sQ-8" target="fnRWYfsaQO0EPqaBbEek-10" edge="1">
          <mxGeometry relative="1" as="geometry" />
        </mxCell>
        <mxCell id="ZVnaHanlXdLFKSegdmK0-5" value="" style="edgeStyle=orthogonalEdgeStyle;rounded=0;orthogonalLoop=1;jettySize=auto;html=1;entryX=0;entryY=0.5;entryDx=0;entryDy=0;entryPerimeter=0;" parent="1" source="gZ_beA-vXtJLZaEBM_sQ-11" target="gZ_beA-vXtJLZaEBM_sQ-10" edge="1">
          <mxGeometry relative="1" as="geometry" />
        </mxCell>
        <mxCell id="gZ_beA-vXtJLZaEBM_sQ-11" value="mongo&amp;nbsp;&lt;div&gt;&lt;span style=&quot;white-space-collapse: preserve;&quot; data-src-align=&quot;0:13&quot; class=&quot;EzKURWReUAB5oZgtQNkl&quot;&gt;router &lt;/span&gt;&lt;/div&gt;" style="rounded=0;whiteSpace=wrap;html=1;" parent="1" vertex="1">
          <mxGeometry x="322.5" y="717" width="115" height="100" as="geometry" />
        </mxCell>
        <mxCell id="ZVnaHanlXdLFKSegdmK0-2" style="edgeStyle=orthogonalEdgeStyle;rounded=0;orthogonalLoop=1;jettySize=auto;html=1;entryX=1;entryY=0.5;entryDx=0;entryDy=0;" parent="1" source="ZVnaHanlXdLFKSegdmK0-1" target="fnRWYfsaQO0EPqaBbEek-10" edge="1">
          <mxGeometry relative="1" as="geometry" />
        </mxCell>
        <mxCell id="ZVnaHanlXdLFKSegdmK0-1" value="configSrv&lt;div&gt;(&lt;font style=&quot;font-size: 12px;&quot;&gt;&lt;span style=&quot;text-wrap: nowrap; background-color: rgb(255, 255, 255);&quot;&gt;данные&lt;br&gt;&lt;/span&gt;&lt;span style=&quot;text-wrap: nowrap; background-color: initial;&quot;&gt;&amp;nbsp;о кластере&lt;/span&gt;&lt;/font&gt;)&lt;/div&gt;" style="rounded=0;whiteSpace=wrap;html=1;" parent="1" vertex="1">
          <mxGeometry x="640" y="395" width="120" height="60" as="geometry" />
        </mxCell>
        <mxCell id="ZVnaHanlXdLFKSegdmK0-6" style="edgeStyle=orthogonalEdgeStyle;rounded=0;orthogonalLoop=1;jettySize=auto;html=1;entryX=0;entryY=0;entryDx=0;entryDy=52.5;entryPerimeter=0;" parent="1" source="gZ_beA-vXtJLZaEBM_sQ-11" target="gZ_beA-vXtJLZaEBM_sQ-7" edge="1">
          <mxGeometry relative="1" as="geometry" />
        </mxCell>
        <mxCell id="fnRWYfsaQO0EPqaBbEek-1" value="User" style="shape=umlActor;verticalLabelPosition=bottom;verticalAlign=top;html=1;outlineConnect=0;" parent="1" vertex="1">
          <mxGeometry x="170" y="120" width="30" height="60" as="geometry" />
        </mxCell>
        <mxCell id="fnRWYfsaQO0EPqaBbEek-2" style="edgeStyle=orthogonalEdgeStyle;rounded=0;orthogonalLoop=1;jettySize=auto;html=1;exitX=0.5;exitY=0.5;exitDx=0;exitDy=0;exitPerimeter=0;" parent="1" source="fnRWYfsaQO0EPqaBbEek-1" edge="1">
          <mxGeometry relative="1" as="geometry">
            <mxPoint x="490" y="160" as="sourcePoint" />
            <mxPoint x="360" y="150" as="targetPoint" />
          </mxGeometry>
        </mxCell>
        <mxCell id="fnRWYfsaQO0EPqaBbEek-4" value="as-is" style="text;html=1;align=center;verticalAlign=middle;whiteSpace=wrap;rounded=0;" parent="1" vertex="1">
          <mxGeometry x="155" y="70" width="60" height="30" as="geometry" />
        </mxCell>
        <mxCell id="fnRWYfsaQO0EPqaBbEek-7" value="sprint2 task 1 -&amp;nbsp;sharding" style="text;html=1;align=center;verticalAlign=middle;whiteSpace=wrap;rounded=0;" parent="1" vertex="1">
          <mxGeometry x="150" y="355" width="150" height="30" as="geometry" />
        </mxCell>
        <mxCell id="fnRWYfsaQO0EPqaBbEek-8" value="User" style="shape=umlActor;verticalLabelPosition=bottom;verticalAlign=top;html=1;outlineConnect=0;" parent="1" vertex="1">
          <mxGeometry x="160" y="410" width="30" height="60" as="geometry" />
        </mxCell>
        <mxCell id="fnRWYfsaQO0EPqaBbEek-9" style="edgeStyle=orthogonalEdgeStyle;rounded=0;orthogonalLoop=1;jettySize=auto;html=1;exitX=0.5;exitY=0.5;exitDx=0;exitDy=0;exitPerimeter=0;entryX=0;entryY=0.5;entryDx=0;entryDy=0;" parent="1" source="fnRWYfsaQO0EPqaBbEek-8" target="gZ_beA-vXtJLZaEBM_sQ-8" edge="1">
          <mxGeometry relative="1" as="geometry">
            <mxPoint x="195" y="160" as="sourcePoint" />
            <mxPoint x="370" y="160" as="targetPoint" />
          </mxGeometry>
        </mxCell>
        <mxCell id="fnRWYfsaQO0EPqaBbEek-10" value="mongo&amp;nbsp;&lt;div&gt;&lt;span style=&quot;white-space-collapse: preserve;&quot; data-src-align=&quot;0:13&quot; class=&quot;EzKURWReUAB5oZgtQNkl&quot;&gt;driver&lt;/span&gt;&lt;/div&gt;" style="rounded=0;whiteSpace=wrap;html=1;" parent="1" vertex="1">
          <mxGeometry x="322.5" y="548" width="115" height="100" as="geometry" />
        </mxCell>
        <mxCell id="fnRWYfsaQO0EPqaBbEek-11" style="edgeStyle=orthogonalEdgeStyle;rounded=0;orthogonalLoop=1;jettySize=auto;html=1;exitX=0.5;exitY=1;exitDx=0;exitDy=0;entryX=0.5;entryY=0;entryDx=0;entryDy=0;" parent="1" source="fnRWYfsaQO0EPqaBbEek-10" target="gZ_beA-vXtJLZaEBM_sQ-11" edge="1">
          <mxGeometry relative="1" as="geometry">
            <mxPoint x="390" y="480" as="sourcePoint" />
            <mxPoint x="390" y="540" as="targetPoint" />
          </mxGeometry>
        </mxCell>
        <mxCell id="gZ_beA-vXtJLZaEBM_sQ-10" value="MongoDB&lt;br&gt;shard 1" style="shape=cylinder3;whiteSpace=wrap;html=1;boundedLbl=1;backgroundOutline=1;size=15;" parent="1" vertex="1">
          <mxGeometry x="560" y="652" width="60" height="80" as="geometry" />
        </mxCell>
        <mxCell id="gZ_beA-vXtJLZaEBM_sQ-7" value="MongoDB&lt;br&gt;shard 2" style="shape=cylinder3;whiteSpace=wrap;html=1;boundedLbl=1;backgroundOutline=1;size=15;" parent="1" vertex="1">
          <mxGeometry x="561" y="775" width="60" height="80" as="geometry" />
        </mxCell>
        <mxCell id="fnRWYfsaQO0EPqaBbEek-17" value="" style="rounded=0;whiteSpace=wrap;html=1;align=left;" parent="1" vertex="1">
          <mxGeometry x="95" y="900" width="955" height="630" as="geometry" />
        </mxCell>
        <mxCell id="fnRWYfsaQO0EPqaBbEek-18" value="pymongo-api" style="rounded=1;whiteSpace=wrap;html=1;" parent="1" vertex="1">
          <mxGeometry x="320" y="980" width="120" height="60" as="geometry" />
        </mxCell>
        <mxCell id="fnRWYfsaQO0EPqaBbEek-19" style="edgeStyle=orthogonalEdgeStyle;rounded=0;orthogonalLoop=1;jettySize=auto;html=1;exitX=0.5;exitY=1;exitDx=0;exitDy=0;" parent="1" source="fnRWYfsaQO0EPqaBbEek-18" target="fnRWYfsaQO0EPqaBbEek-28" edge="1">
          <mxGeometry relative="1" as="geometry" />
        </mxCell>
        <mxCell id="fnRWYfsaQO0EPqaBbEek-20" value="" style="edgeStyle=orthogonalEdgeStyle;rounded=0;orthogonalLoop=1;jettySize=auto;html=1;entryX=0;entryY=0.5;entryDx=0;entryDy=0;" parent="1" source="fnRWYfsaQO0EPqaBbEek-21" target="gZ_beA-vXtJLZaEBM_sQ-23" edge="1">
          <mxGeometry relative="1" as="geometry">
            <mxPoint x="560" y="1262" as="targetPoint" />
          </mxGeometry>
        </mxCell>
        <mxCell id="fnRWYfsaQO0EPqaBbEek-21" value="mongo&amp;nbsp;&lt;div&gt;&lt;span style=&quot;white-space-collapse: preserve;&quot; data-src-align=&quot;0:13&quot; class=&quot;EzKURWReUAB5oZgtQNkl&quot;&gt;router &lt;/span&gt;&lt;/div&gt;" style="rounded=0;whiteSpace=wrap;html=1;" parent="1" vertex="1">
          <mxGeometry x="322.5" y="1287" width="115" height="100" as="geometry" />
        </mxCell>
        <mxCell id="fnRWYfsaQO0EPqaBbEek-22" style="edgeStyle=orthogonalEdgeStyle;rounded=0;orthogonalLoop=1;jettySize=auto;html=1;entryX=1;entryY=0.5;entryDx=0;entryDy=0;" parent="1" source="fnRWYfsaQO0EPqaBbEek-23" target="fnRWYfsaQO0EPqaBbEek-28" edge="1">
          <mxGeometry relative="1" as="geometry" />
        </mxCell>
        <mxCell id="fnRWYfsaQO0EPqaBbEek-23" value="configSrv&lt;div&gt;(&lt;font style=&quot;font-size: 12px;&quot;&gt;&lt;span style=&quot;text-wrap: nowrap; background-color: rgb(255, 255, 255);&quot;&gt;данные&lt;br&gt;&lt;/span&gt;&lt;span style=&quot;text-wrap: nowrap; background-color: initial;&quot;&gt;&amp;nbsp;о кластере&lt;/span&gt;&lt;/font&gt;)&lt;/div&gt;" style="rounded=0;whiteSpace=wrap;html=1;" parent="1" vertex="1">
          <mxGeometry x="640" y="965" width="120" height="60" as="geometry" />
        </mxCell>
        <mxCell id="fnRWYfsaQO0EPqaBbEek-24" style="edgeStyle=orthogonalEdgeStyle;rounded=0;orthogonalLoop=1;jettySize=auto;html=1;" parent="1" source="fnRWYfsaQO0EPqaBbEek-21" target="gZ_beA-vXtJLZaEBM_sQ-27" edge="1">
          <mxGeometry relative="1" as="geometry">
            <mxPoint x="561" y="1397.5" as="targetPoint" />
          </mxGeometry>
        </mxCell>
        <mxCell id="fnRWYfsaQO0EPqaBbEek-25" value="sprint2 task 2 -&amp;nbsp;sharding + replication" style="text;html=1;align=center;verticalAlign=middle;whiteSpace=wrap;rounded=0;" parent="1" vertex="1">
          <mxGeometry x="150" y="925" width="150" height="30" as="geometry" />
        </mxCell>
        <mxCell id="fnRWYfsaQO0EPqaBbEek-26" value="User" style="shape=umlActor;verticalLabelPosition=bottom;verticalAlign=top;html=1;outlineConnect=0;" parent="1" vertex="1">
          <mxGeometry x="160" y="980" width="30" height="60" as="geometry" />
        </mxCell>
        <mxCell id="fnRWYfsaQO0EPqaBbEek-27" style="edgeStyle=orthogonalEdgeStyle;rounded=0;orthogonalLoop=1;jettySize=auto;html=1;exitX=0.5;exitY=0.5;exitDx=0;exitDy=0;exitPerimeter=0;entryX=0;entryY=0.5;entryDx=0;entryDy=0;" parent="1" source="fnRWYfsaQO0EPqaBbEek-26" target="fnRWYfsaQO0EPqaBbEek-18" edge="1">
          <mxGeometry relative="1" as="geometry">
            <mxPoint x="195" y="730" as="sourcePoint" />
            <mxPoint x="370" y="730" as="targetPoint" />
          </mxGeometry>
        </mxCell>
        <mxCell id="fnRWYfsaQO0EPqaBbEek-28" value="mongo&amp;nbsp;&lt;div&gt;&lt;span style=&quot;white-space-collapse: preserve;&quot; data-src-align=&quot;0:13&quot; class=&quot;EzKURWReUAB5oZgtQNkl&quot;&gt;driver&lt;/span&gt;&lt;/div&gt;" style="rounded=0;whiteSpace=wrap;html=1;" parent="1" vertex="1">
          <mxGeometry x="322.5" y="1118" width="115" height="100" as="geometry" />
        </mxCell>
        <mxCell id="fnRWYfsaQO0EPqaBbEek-29" style="edgeStyle=orthogonalEdgeStyle;rounded=0;orthogonalLoop=1;jettySize=auto;html=1;exitX=0.5;exitY=1;exitDx=0;exitDy=0;entryX=0.5;entryY=0;entryDx=0;entryDy=0;" parent="1" source="fnRWYfsaQO0EPqaBbEek-28" target="fnRWYfsaQO0EPqaBbEek-21" edge="1">
          <mxGeometry relative="1" as="geometry">
            <mxPoint x="390" y="1050" as="sourcePoint" />
            <mxPoint x="390" y="1110" as="targetPoint" />
          </mxGeometry>
        </mxCell>
        <mxCell id="gZ_beA-vXtJLZaEBM_sQ-23" value="" style="whiteSpace=wrap;html=1;aspect=fixed;" parent="1" vertex="1">
          <mxGeometry x="740" y="1040" width="220" height="220" as="geometry" />
        </mxCell>
        <mxCell id="gZ_beA-vXtJLZaEBM_sQ-17" value="MongoDB&lt;br&gt;sh1 primary" style="shape=cylinder3;whiteSpace=wrap;html=1;boundedLbl=1;backgroundOutline=1;size=15;" parent="1" vertex="1">
          <mxGeometry x="770" y="1100" width="60" height="80" as="geometry" />
        </mxCell>
        <mxCell id="fnRWYfsaQO0EPqaBbEek-39" style="edgeStyle=orthogonalEdgeStyle;rounded=0;orthogonalLoop=1;jettySize=auto;html=1;exitX=0;exitY=0.5;exitDx=0;exitDy=0;exitPerimeter=0;" parent="1" source="gZ_beA-vXtJLZaEBM_sQ-21" target="gZ_beA-vXtJLZaEBM_sQ-17" edge="1">
          <mxGeometry relative="1" as="geometry" />
        </mxCell>
        <mxCell id="gZ_beA-vXtJLZaEBM_sQ-21" value="MongoDB&lt;div&gt;sh1&lt;br&gt;secondary&amp;nbsp;&lt;/div&gt;" style="shape=cylinder3;whiteSpace=wrap;html=1;boundedLbl=1;backgroundOutline=1;size=15;" parent="1" vertex="1">
          <mxGeometry x="860" y="1050" width="60" height="80" as="geometry" />
        </mxCell>
        <mxCell id="fnRWYfsaQO0EPqaBbEek-40" style="edgeStyle=orthogonalEdgeStyle;rounded=0;orthogonalLoop=1;jettySize=auto;html=1;exitX=0;exitY=0.5;exitDx=0;exitDy=0;exitPerimeter=0;" parent="1" source="gZ_beA-vXtJLZaEBM_sQ-22" target="gZ_beA-vXtJLZaEBM_sQ-17" edge="1">
          <mxGeometry relative="1" as="geometry" />
        </mxCell>
        <mxCell id="gZ_beA-vXtJLZaEBM_sQ-22" value="MongoDB&lt;div&gt;sh1&lt;br&gt;secondary&amp;nbsp;&lt;/div&gt;" style="shape=cylinder3;whiteSpace=wrap;html=1;boundedLbl=1;backgroundOutline=1;size=15;" parent="1" vertex="1">
          <mxGeometry x="860" y="1160" width="60" height="80" as="geometry" />
        </mxCell>
        <mxCell id="gZ_beA-vXtJLZaEBM_sQ-25" value="Shard1" style="text;html=1;align=center;verticalAlign=middle;whiteSpace=wrap;rounded=0;" parent="1" vertex="1">
          <mxGeometry x="750" y="1050" width="60" height="30" as="geometry" />
        </mxCell>
        <mxCell id="gZ_beA-vXtJLZaEBM_sQ-27" value="" style="whiteSpace=wrap;html=1;aspect=fixed;" parent="1" vertex="1">
          <mxGeometry x="740" y="1287" width="220" height="220" as="geometry" />
        </mxCell>
        <mxCell id="gZ_beA-vXtJLZaEBM_sQ-28" value="MongoDB&lt;div&gt;sh2&lt;br&gt;primary&lt;/div&gt;" style="shape=cylinder3;whiteSpace=wrap;html=1;boundedLbl=1;backgroundOutline=1;size=15;" parent="1" vertex="1">
          <mxGeometry x="770" y="1347" width="60" height="80" as="geometry" />
        </mxCell>
        <mxCell id="fnRWYfsaQO0EPqaBbEek-42" style="edgeStyle=orthogonalEdgeStyle;rounded=0;orthogonalLoop=1;jettySize=auto;html=1;exitX=0;exitY=0.5;exitDx=0;exitDy=0;exitPerimeter=0;" parent="1" source="gZ_beA-vXtJLZaEBM_sQ-29" target="gZ_beA-vXtJLZaEBM_sQ-28" edge="1">
          <mxGeometry relative="1" as="geometry" />
        </mxCell>
        <mxCell id="fnRWYfsaQO0EPqaBbEek-44" style="edgeStyle=orthogonalEdgeStyle;rounded=0;orthogonalLoop=1;jettySize=auto;html=1;exitX=0.5;exitY=1;exitDx=0;exitDy=0;exitPerimeter=0;startArrow=classic;startFill=1;" parent="1" source="gZ_beA-vXtJLZaEBM_sQ-29" target="gZ_beA-vXtJLZaEBM_sQ-30" edge="1">
          <mxGeometry relative="1" as="geometry" />
        </mxCell>
        <mxCell id="gZ_beA-vXtJLZaEBM_sQ-29" value="MongoDB&lt;div&gt;sh2&lt;br&gt;secondary&amp;nbsp;&lt;/div&gt;" style="shape=cylinder3;whiteSpace=wrap;html=1;boundedLbl=1;backgroundOutline=1;size=15;" parent="1" vertex="1">
          <mxGeometry x="860" y="1297" width="60" height="80" as="geometry" />
        </mxCell>
        <mxCell id="gZ_beA-vXtJLZaEBM_sQ-30" value="MongoDB&lt;div&gt;sh2&lt;br&gt;secondary&amp;nbsp;&lt;/div&gt;" style="shape=cylinder3;whiteSpace=wrap;html=1;boundedLbl=1;backgroundOutline=1;size=15;" parent="1" vertex="1">
          <mxGeometry x="860" y="1407" width="60" height="80" as="geometry" />
        </mxCell>
        <mxCell id="fnRWYfsaQO0EPqaBbEek-32" value="Shard2" style="text;html=1;align=center;verticalAlign=middle;whiteSpace=wrap;rounded=0;" parent="1" vertex="1">
          <mxGeometry x="750" y="1297" width="60" height="30" as="geometry" />
        </mxCell>
        <mxCell id="fnRWYfsaQO0EPqaBbEek-41" style="edgeStyle=orthogonalEdgeStyle;rounded=0;orthogonalLoop=1;jettySize=auto;html=1;exitX=0.5;exitY=0;exitDx=0;exitDy=0;exitPerimeter=0;entryX=0.5;entryY=1;entryDx=0;entryDy=0;entryPerimeter=0;startArrow=classic;startFill=1;" parent="1" source="gZ_beA-vXtJLZaEBM_sQ-22" target="gZ_beA-vXtJLZaEBM_sQ-21" edge="1">
          <mxGeometry relative="1" as="geometry" />
        </mxCell>
        <mxCell id="fnRWYfsaQO0EPqaBbEek-43" style="edgeStyle=orthogonalEdgeStyle;rounded=0;orthogonalLoop=1;jettySize=auto;html=1;exitX=0;exitY=0.5;exitDx=0;exitDy=0;exitPerimeter=0;entryX=1;entryY=0.5;entryDx=0;entryDy=0;entryPerimeter=0;" parent="1" source="gZ_beA-vXtJLZaEBM_sQ-30" target="gZ_beA-vXtJLZaEBM_sQ-28" edge="1">
          <mxGeometry relative="1" as="geometry" />
        </mxCell>
        <mxCell id="fnRWYfsaQO0EPqaBbEek-45" value="" style="rounded=0;whiteSpace=wrap;html=1;align=left;" parent="1" vertex="1">
          <mxGeometry x="90" y="1560" width="955" height="630" as="geometry" />
        </mxCell>
        <mxCell id="fnRWYfsaQO0EPqaBbEek-46" value="pymongo-api" style="rounded=1;whiteSpace=wrap;html=1;" parent="1" vertex="1">
          <mxGeometry x="315" y="1640" width="120" height="60" as="geometry" />
        </mxCell>
        <mxCell id="fnRWYfsaQO0EPqaBbEek-47" style="edgeStyle=orthogonalEdgeStyle;rounded=0;orthogonalLoop=1;jettySize=auto;html=1;exitX=0.5;exitY=1;exitDx=0;exitDy=0;" parent="1" source="fnRWYfsaQO0EPqaBbEek-46" target="fnRWYfsaQO0EPqaBbEek-56" edge="1">
          <mxGeometry relative="1" as="geometry" />
        </mxCell>
        <mxCell id="fnRWYfsaQO0EPqaBbEek-48" value="" style="edgeStyle=orthogonalEdgeStyle;rounded=0;orthogonalLoop=1;jettySize=auto;html=1;entryX=0;entryY=0.5;entryDx=0;entryDy=0;" parent="1" source="fnRWYfsaQO0EPqaBbEek-49" target="fnRWYfsaQO0EPqaBbEek-58" edge="1">
          <mxGeometry relative="1" as="geometry">
            <mxPoint x="555" y="1922" as="targetPoint" />
          </mxGeometry>
        </mxCell>
        <mxCell id="fnRWYfsaQO0EPqaBbEek-49" value="mongo&amp;nbsp;&lt;div&gt;&lt;span style=&quot;white-space-collapse: preserve;&quot; data-src-align=&quot;0:13&quot; class=&quot;EzKURWReUAB5oZgtQNkl&quot;&gt;router &lt;/span&gt;&lt;/div&gt;" style="rounded=0;whiteSpace=wrap;html=1;" parent="1" vertex="1">
          <mxGeometry x="317.5" y="1947" width="115" height="100" as="geometry" />
        </mxCell>
        <mxCell id="fnRWYfsaQO0EPqaBbEek-50" style="edgeStyle=orthogonalEdgeStyle;rounded=0;orthogonalLoop=1;jettySize=auto;html=1;entryX=1;entryY=0.5;entryDx=0;entryDy=0;" parent="1" source="fnRWYfsaQO0EPqaBbEek-51" target="fnRWYfsaQO0EPqaBbEek-56" edge="1">
          <mxGeometry relative="1" as="geometry" />
        </mxCell>
        <mxCell id="fnRWYfsaQO0EPqaBbEek-51" value="configSrv&lt;div&gt;(&lt;font style=&quot;font-size: 12px;&quot;&gt;&lt;span style=&quot;text-wrap: nowrap; background-color: rgb(255, 255, 255);&quot;&gt;данные&lt;br&gt;&lt;/span&gt;&lt;span style=&quot;text-wrap: nowrap; background-color: initial;&quot;&gt;&amp;nbsp;о кластере&lt;/span&gt;&lt;/font&gt;)&lt;/div&gt;" style="rounded=0;whiteSpace=wrap;html=1;" parent="1" vertex="1">
          <mxGeometry x="635" y="1625" width="120" height="60" as="geometry" />
        </mxCell>
        <mxCell id="fnRWYfsaQO0EPqaBbEek-52" style="edgeStyle=orthogonalEdgeStyle;rounded=0;orthogonalLoop=1;jettySize=auto;html=1;" parent="1" source="fnRWYfsaQO0EPqaBbEek-49" target="fnRWYfsaQO0EPqaBbEek-65" edge="1">
          <mxGeometry relative="1" as="geometry">
            <mxPoint x="556" y="2057.5" as="targetPoint" />
          </mxGeometry>
        </mxCell>
        <mxCell id="fnRWYfsaQO0EPqaBbEek-53" value="sprint2 task 3 -&amp;nbsp;sharding + replication + redis" style="text;html=1;align=center;verticalAlign=middle;whiteSpace=wrap;rounded=0;" parent="1" vertex="1">
          <mxGeometry x="145" y="1585" width="150" height="30" as="geometry" />
        </mxCell>
        <mxCell id="fnRWYfsaQO0EPqaBbEek-54" value="User" style="shape=umlActor;verticalLabelPosition=bottom;verticalAlign=top;html=1;outlineConnect=0;" parent="1" vertex="1">
          <mxGeometry x="155" y="1640" width="30" height="60" as="geometry" />
        </mxCell>
        <mxCell id="fnRWYfsaQO0EPqaBbEek-55" style="edgeStyle=orthogonalEdgeStyle;rounded=0;orthogonalLoop=1;jettySize=auto;html=1;exitX=0.5;exitY=0.5;exitDx=0;exitDy=0;exitPerimeter=0;entryX=0;entryY=0.5;entryDx=0;entryDy=0;" parent="1" source="fnRWYfsaQO0EPqaBbEek-54" target="fnRWYfsaQO0EPqaBbEek-46" edge="1">
          <mxGeometry relative="1" as="geometry">
            <mxPoint x="190" y="1390" as="sourcePoint" />
            <mxPoint x="365" y="1390" as="targetPoint" />
          </mxGeometry>
        </mxCell>
        <mxCell id="fnRWYfsaQO0EPqaBbEek-56" value="mongo&amp;nbsp;&lt;div&gt;&lt;span style=&quot;white-space-collapse: preserve;&quot; data-src-align=&quot;0:13&quot; class=&quot;EzKURWReUAB5oZgtQNkl&quot;&gt;driver&lt;/span&gt;&lt;/div&gt;" style="rounded=0;whiteSpace=wrap;html=1;" parent="1" vertex="1">
          <mxGeometry x="317.5" y="1778" width="115" height="100" as="geometry" />
        </mxCell>
        <mxCell id="fnRWYfsaQO0EPqaBbEek-57" style="edgeStyle=orthogonalEdgeStyle;rounded=0;orthogonalLoop=1;jettySize=auto;html=1;exitX=0.5;exitY=1;exitDx=0;exitDy=0;entryX=0.5;entryY=0;entryDx=0;entryDy=0;" parent="1" source="fnRWYfsaQO0EPqaBbEek-56" target="fnRWYfsaQO0EPqaBbEek-49" edge="1">
          <mxGeometry relative="1" as="geometry">
            <mxPoint x="385" y="1710" as="sourcePoint" />
            <mxPoint x="385" y="1770" as="targetPoint" />
          </mxGeometry>
        </mxCell>
        <mxCell id="fnRWYfsaQO0EPqaBbEek-58" value="" style="whiteSpace=wrap;html=1;aspect=fixed;" parent="1" vertex="1">
          <mxGeometry x="735" y="1700" width="220" height="220" as="geometry" />
        </mxCell>
        <mxCell id="fnRWYfsaQO0EPqaBbEek-59" value="MongoDB&lt;br&gt;sh1 primary" style="shape=cylinder3;whiteSpace=wrap;html=1;boundedLbl=1;backgroundOutline=1;size=15;" parent="1" vertex="1">
          <mxGeometry x="765" y="1760" width="60" height="80" as="geometry" />
        </mxCell>
        <mxCell id="fnRWYfsaQO0EPqaBbEek-60" style="edgeStyle=orthogonalEdgeStyle;rounded=0;orthogonalLoop=1;jettySize=auto;html=1;exitX=0;exitY=0.5;exitDx=0;exitDy=0;exitPerimeter=0;" parent="1" source="fnRWYfsaQO0EPqaBbEek-61" target="fnRWYfsaQO0EPqaBbEek-59" edge="1">
          <mxGeometry relative="1" as="geometry" />
        </mxCell>
        <mxCell id="fnRWYfsaQO0EPqaBbEek-61" value="MongoDB&lt;div&gt;sh1&lt;br&gt;secondary&amp;nbsp;&lt;/div&gt;" style="shape=cylinder3;whiteSpace=wrap;html=1;boundedLbl=1;backgroundOutline=1;size=15;" parent="1" vertex="1">
          <mxGeometry x="855" y="1710" width="60" height="80" as="geometry" />
        </mxCell>
        <mxCell id="fnRWYfsaQO0EPqaBbEek-62" style="edgeStyle=orthogonalEdgeStyle;rounded=0;orthogonalLoop=1;jettySize=auto;html=1;exitX=0;exitY=0.5;exitDx=0;exitDy=0;exitPerimeter=0;" parent="1" source="fnRWYfsaQO0EPqaBbEek-63" target="fnRWYfsaQO0EPqaBbEek-59" edge="1">
          <mxGeometry relative="1" as="geometry" />
        </mxCell>
        <mxCell id="fnRWYfsaQO0EPqaBbEek-63" value="MongoDB&lt;div&gt;sh1&lt;br&gt;secondary&amp;nbsp;&lt;/div&gt;" style="shape=cylinder3;whiteSpace=wrap;html=1;boundedLbl=1;backgroundOutline=1;size=15;" parent="1" vertex="1">
          <mxGeometry x="855" y="1820" width="60" height="80" as="geometry" />
        </mxCell>
        <mxCell id="fnRWYfsaQO0EPqaBbEek-64" value="Shard1" style="text;html=1;align=center;verticalAlign=middle;whiteSpace=wrap;rounded=0;" parent="1" vertex="1">
          <mxGeometry x="745" y="1710" width="60" height="30" as="geometry" />
        </mxCell>
        <mxCell id="fnRWYfsaQO0EPqaBbEek-65" value="" style="whiteSpace=wrap;html=1;aspect=fixed;" parent="1" vertex="1">
          <mxGeometry x="735" y="1947" width="220" height="220" as="geometry" />
        </mxCell>
        <mxCell id="fnRWYfsaQO0EPqaBbEek-66" value="MongoDB&lt;div&gt;sh2&lt;br&gt;primary&lt;/div&gt;" style="shape=cylinder3;whiteSpace=wrap;html=1;boundedLbl=1;backgroundOutline=1;size=15;" parent="1" vertex="1">
          <mxGeometry x="765" y="2007" width="60" height="80" as="geometry" />
        </mxCell>
        <mxCell id="fnRWYfsaQO0EPqaBbEek-67" style="edgeStyle=orthogonalEdgeStyle;rounded=0;orthogonalLoop=1;jettySize=auto;html=1;exitX=0;exitY=0.5;exitDx=0;exitDy=0;exitPerimeter=0;" parent="1" source="fnRWYfsaQO0EPqaBbEek-69" target="fnRWYfsaQO0EPqaBbEek-66" edge="1">
          <mxGeometry relative="1" as="geometry" />
        </mxCell>
        <mxCell id="fnRWYfsaQO0EPqaBbEek-68" style="edgeStyle=orthogonalEdgeStyle;rounded=0;orthogonalLoop=1;jettySize=auto;html=1;exitX=0.5;exitY=1;exitDx=0;exitDy=0;exitPerimeter=0;startArrow=classic;startFill=1;" parent="1" source="fnRWYfsaQO0EPqaBbEek-69" target="fnRWYfsaQO0EPqaBbEek-70" edge="1">
          <mxGeometry relative="1" as="geometry" />
        </mxCell>
        <mxCell id="fnRWYfsaQO0EPqaBbEek-69" value="MongoDB&lt;div&gt;sh2&lt;br&gt;secondary&amp;nbsp;&lt;/div&gt;" style="shape=cylinder3;whiteSpace=wrap;html=1;boundedLbl=1;backgroundOutline=1;size=15;" parent="1" vertex="1">
          <mxGeometry x="855" y="1957" width="60" height="80" as="geometry" />
        </mxCell>
        <mxCell id="fnRWYfsaQO0EPqaBbEek-70" value="MongoDB&lt;div&gt;sh2&lt;br&gt;secondary&amp;nbsp;&lt;/div&gt;" style="shape=cylinder3;whiteSpace=wrap;html=1;boundedLbl=1;backgroundOutline=1;size=15;" parent="1" vertex="1">
          <mxGeometry x="855" y="2067" width="60" height="80" as="geometry" />
        </mxCell>
        <mxCell id="fnRWYfsaQO0EPqaBbEek-71" value="Shard2" style="text;html=1;align=center;verticalAlign=middle;whiteSpace=wrap;rounded=0;" parent="1" vertex="1">
          <mxGeometry x="745" y="1957" width="60" height="30" as="geometry" />
        </mxCell>
        <mxCell id="fnRWYfsaQO0EPqaBbEek-72" style="edgeStyle=orthogonalEdgeStyle;rounded=0;orthogonalLoop=1;jettySize=auto;html=1;exitX=0.5;exitY=0;exitDx=0;exitDy=0;exitPerimeter=0;entryX=0.5;entryY=1;entryDx=0;entryDy=0;entryPerimeter=0;startArrow=classic;startFill=1;" parent="1" source="fnRWYfsaQO0EPqaBbEek-63" target="fnRWYfsaQO0EPqaBbEek-61" edge="1">
          <mxGeometry relative="1" as="geometry" />
        </mxCell>
        <mxCell id="fnRWYfsaQO0EPqaBbEek-73" style="edgeStyle=orthogonalEdgeStyle;rounded=0;orthogonalLoop=1;jettySize=auto;html=1;exitX=0;exitY=0.5;exitDx=0;exitDy=0;exitPerimeter=0;entryX=1;entryY=0.5;entryDx=0;entryDy=0;entryPerimeter=0;" parent="1" source="fnRWYfsaQO0EPqaBbEek-70" target="fnRWYfsaQO0EPqaBbEek-66" edge="1">
          <mxGeometry relative="1" as="geometry" />
        </mxCell>
        <mxCell id="fnRWYfsaQO0EPqaBbEek-74" value="Redis" style="shape=cylinder3;whiteSpace=wrap;html=1;boundedLbl=1;backgroundOutline=1;size=15;" parent="1" vertex="1">
          <mxGeometry x="460" y="2067" width="60" height="80" as="geometry" />
        </mxCell>
        <mxCell id="fnRWYfsaQO0EPqaBbEek-75" style="edgeStyle=orthogonalEdgeStyle;rounded=0;orthogonalLoop=1;jettySize=auto;html=1;exitX=0.5;exitY=1;exitDx=0;exitDy=0;entryX=0;entryY=0.5;entryDx=0;entryDy=0;entryPerimeter=0;" parent="1" source="fnRWYfsaQO0EPqaBbEek-49" target="fnRWYfsaQO0EPqaBbEek-74" edge="1">
          <mxGeometry relative="1" as="geometry" />
        </mxCell>
        <mxCell id="1Zy2XbYylVy56BqZgApC-1" value="" style="rounded=0;whiteSpace=wrap;html=1;align=left;" vertex="1" parent="1">
          <mxGeometry x="1760" y="327" width="1850" height="760" as="geometry" />
        </mxCell>
        <mxCell id="1Zy2XbYylVy56BqZgApC-2" value="sprint2 task 5 -&amp;nbsp;sharding + replication + redis + instans (добавил так же nginx + redis)" style="text;html=1;align=center;verticalAlign=middle;whiteSpace=wrap;rounded=0;" vertex="1" parent="1">
          <mxGeometry x="1815" y="367" width="150" height="30" as="geometry" />
        </mxCell>
        <mxCell id="1Zy2XbYylVy56BqZgApC-40" style="edgeStyle=orthogonalEdgeStyle;rounded=0;orthogonalLoop=1;jettySize=auto;html=1;exitX=0.5;exitY=1;exitDx=0;exitDy=0;entryX=0.5;entryY=0;entryDx=0;entryDy=0;" edge="1" parent="1" target="1Zy2XbYylVy56BqZgApC-47" source="1Zy2XbYylVy56BqZgApC-48">
          <mxGeometry relative="1" as="geometry">
            <mxPoint x="2430" y="709.5" as="sourcePoint" />
          </mxGeometry>
        </mxCell>
        <mxCell id="1Zy2XbYylVy56BqZgApC-41" style="edgeStyle=orthogonalEdgeStyle;rounded=0;orthogonalLoop=1;jettySize=auto;html=1;entryX=0;entryY=0.5;entryDx=0;entryDy=0;" edge="1" parent="1" source="1Zy2XbYylVy56BqZgApC-163" target="1Zy2XbYylVy56BqZgApC-46">
          <mxGeometry relative="1" as="geometry" />
        </mxCell>
        <mxCell id="1Zy2XbYylVy56BqZgApC-42" value="User" style="shape=umlActor;verticalLabelPosition=bottom;verticalAlign=top;html=1;outlineConnect=0;" vertex="1" parent="1">
          <mxGeometry x="1860" y="538" width="30" height="60" as="geometry" />
        </mxCell>
        <mxCell id="1Zy2XbYylVy56BqZgApC-43" style="edgeStyle=orthogonalEdgeStyle;rounded=0;orthogonalLoop=1;jettySize=auto;html=1;entryX=0;entryY=0.5;entryDx=0;entryDy=0;exitX=0.25;exitY=1;exitDx=0;exitDy=0;" edge="1" parent="1" source="1Zy2XbYylVy56BqZgApC-46" target="1Zy2XbYylVy56BqZgApC-47">
          <mxGeometry relative="1" as="geometry" />
        </mxCell>
        <mxCell id="1Zy2XbYylVy56BqZgApC-44" style="edgeStyle=orthogonalEdgeStyle;rounded=0;orthogonalLoop=1;jettySize=auto;html=1;exitX=1;exitY=0.5;exitDx=0;exitDy=0;entryX=0;entryY=0.5;entryDx=0;entryDy=0;" edge="1" parent="1" source="1Zy2XbYylVy56BqZgApC-46" target="1Zy2XbYylVy56BqZgApC-53">
          <mxGeometry relative="1" as="geometry">
            <mxPoint x="2430" y="892" as="targetPoint" />
          </mxGeometry>
        </mxCell>
        <mxCell id="1Zy2XbYylVy56BqZgApC-45" style="edgeStyle=orthogonalEdgeStyle;rounded=0;orthogonalLoop=1;jettySize=auto;html=1;exitX=1;exitY=0.5;exitDx=0;exitDy=0;entryX=0;entryY=0.5;entryDx=0;entryDy=0;" edge="1" parent="1" source="1Zy2XbYylVy56BqZgApC-46" target="1Zy2XbYylVy56BqZgApC-48">
          <mxGeometry relative="1" as="geometry" />
        </mxCell>
        <mxCell id="1Zy2XbYylVy56BqZgApC-46" value="APISIX&lt;div&gt;Gateway&lt;/div&gt;" style="rounded=1;whiteSpace=wrap;html=1;arcSize=16;" vertex="1" parent="1">
          <mxGeometry x="2130" y="538" width="120" height="60" as="geometry" />
        </mxCell>
        <mxCell id="1Zy2XbYylVy56BqZgApC-47" value="Consul" style="rounded=1;whiteSpace=wrap;html=1;" vertex="1" parent="1">
          <mxGeometry x="2179" y="737" width="120" height="60" as="geometry" />
        </mxCell>
        <mxCell id="1Zy2XbYylVy56BqZgApC-48" value="" style="rounded=0;whiteSpace=wrap;html=1;" vertex="1" parent="1">
          <mxGeometry x="2430" y="451" width="250" height="120" as="geometry" />
        </mxCell>
        <mxCell id="1Zy2XbYylVy56BqZgApC-49" value="Instance1" style="text;html=1;align=center;verticalAlign=middle;whiteSpace=wrap;rounded=0;" vertex="1" parent="1">
          <mxGeometry x="2450" y="471" width="60" height="30" as="geometry" />
        </mxCell>
        <mxCell id="1Zy2XbYylVy56BqZgApC-50" style="edgeStyle=orthogonalEdgeStyle;rounded=0;orthogonalLoop=1;jettySize=auto;html=1;exitX=1;exitY=0.5;exitDx=0;exitDy=0;entryX=0;entryY=0.5;entryDx=0;entryDy=0;" edge="1" parent="1" source="1Zy2XbYylVy56BqZgApC-51" target="1Zy2XbYylVy56BqZgApC-168">
          <mxGeometry relative="1" as="geometry" />
        </mxCell>
        <mxCell id="1Zy2XbYylVy56BqZgApC-51" value="pymongo-api" style="rounded=1;whiteSpace=wrap;html=1;" vertex="1" parent="1">
          <mxGeometry x="2540" y="481" width="120" height="60" as="geometry" />
        </mxCell>
        <mxCell id="1Zy2XbYylVy56BqZgApC-52" style="edgeStyle=orthogonalEdgeStyle;rounded=0;orthogonalLoop=1;jettySize=auto;html=1;exitX=0.5;exitY=0;exitDx=0;exitDy=0;entryX=0.5;entryY=0;entryDx=0;entryDy=0;" edge="1" parent="1" source="1Zy2XbYylVy56BqZgApC-53" target="1Zy2XbYylVy56BqZgApC-47">
          <mxGeometry relative="1" as="geometry">
            <Array as="points">
              <mxPoint x="2555" y="657" />
              <mxPoint x="2239" y="657" />
            </Array>
          </mxGeometry>
        </mxCell>
        <mxCell id="1Zy2XbYylVy56BqZgApC-53" value="" style="rounded=0;whiteSpace=wrap;html=1;" vertex="1" parent="1">
          <mxGeometry x="2430" y="758" width="250" height="120" as="geometry" />
        </mxCell>
        <mxCell id="1Zy2XbYylVy56BqZgApC-54" value="Instance2" style="text;html=1;align=center;verticalAlign=middle;whiteSpace=wrap;rounded=0;" vertex="1" parent="1">
          <mxGeometry x="2450" y="778" width="60" height="30" as="geometry" />
        </mxCell>
        <mxCell id="1Zy2XbYylVy56BqZgApC-55" style="edgeStyle=orthogonalEdgeStyle;rounded=0;orthogonalLoop=1;jettySize=auto;html=1;exitX=1;exitY=0.5;exitDx=0;exitDy=0;entryX=0;entryY=0.5;entryDx=0;entryDy=0;" edge="1" parent="1" source="1Zy2XbYylVy56BqZgApC-168" target="1Zy2XbYylVy56BqZgApC-73">
          <mxGeometry relative="1" as="geometry" />
        </mxCell>
        <mxCell id="1Zy2XbYylVy56BqZgApC-56" style="edgeStyle=orthogonalEdgeStyle;rounded=0;orthogonalLoop=1;jettySize=auto;html=1;exitX=1;exitY=0.5;exitDx=0;exitDy=0;entryX=0;entryY=0;entryDx=0;entryDy=52.5;entryPerimeter=0;" edge="1" parent="1" source="1Zy2XbYylVy56BqZgApC-57" target="1Zy2XbYylVy56BqZgApC-165">
          <mxGeometry relative="1" as="geometry" />
        </mxCell>
        <mxCell id="1Zy2XbYylVy56BqZgApC-57" value="pymongo-api" style="rounded=1;whiteSpace=wrap;html=1;" vertex="1" parent="1">
          <mxGeometry x="2540" y="788" width="120" height="60" as="geometry" />
        </mxCell>
        <mxCell id="1Zy2XbYylVy56BqZgApC-58" value="Redis" style="shape=cylinder3;whiteSpace=wrap;html=1;boundedLbl=1;backgroundOutline=1;size=15;" vertex="1" parent="1">
          <mxGeometry x="2780" y="427" width="60" height="80" as="geometry" />
        </mxCell>
        <mxCell id="1Zy2XbYylVy56BqZgApC-72" style="edgeStyle=orthogonalEdgeStyle;rounded=0;orthogonalLoop=1;jettySize=auto;html=1;entryX=0;entryY=0.5;entryDx=0;entryDy=0;" edge="1" parent="1" source="1Zy2XbYylVy56BqZgApC-73" target="1Zy2XbYylVy56BqZgApC-177">
          <mxGeometry relative="1" as="geometry">
            <mxPoint x="3192" y="987" as="targetPoint" />
          </mxGeometry>
        </mxCell>
        <mxCell id="1Zy2XbYylVy56BqZgApC-73" value="mongo router&amp;nbsp;" style="rounded=0;whiteSpace=wrap;html=1;" vertex="1" parent="1">
          <mxGeometry x="3002" y="581" width="115" height="190" as="geometry" />
        </mxCell>
        <mxCell id="1Zy2XbYylVy56BqZgApC-75" style="edgeStyle=orthogonalEdgeStyle;rounded=0;orthogonalLoop=1;jettySize=auto;html=1;entryX=0;entryY=0.5;entryDx=0;entryDy=0;" edge="1" parent="1" source="1Zy2XbYylVy56BqZgApC-73" target="1Zy2XbYylVy56BqZgApC-170">
          <mxGeometry relative="1" as="geometry">
            <mxPoint x="3206.7400000000002" y="734.8999999999996" as="targetPoint" />
          </mxGeometry>
        </mxCell>
        <mxCell id="1Zy2XbYylVy56BqZgApC-76" style="edgeStyle=orthogonalEdgeStyle;rounded=0;orthogonalLoop=1;jettySize=auto;html=1;exitX=1;exitY=0.5;exitDx=0;exitDy=0;" edge="1" parent="1" source="1Zy2XbYylVy56BqZgApC-51" target="1Zy2XbYylVy56BqZgApC-58">
          <mxGeometry relative="1" as="geometry" />
        </mxCell>
        <mxCell id="1Zy2XbYylVy56BqZgApC-164" value="" style="edgeStyle=orthogonalEdgeStyle;rounded=0;orthogonalLoop=1;jettySize=auto;html=1;entryX=0;entryY=0.5;entryDx=0;entryDy=0;" edge="1" parent="1" source="1Zy2XbYylVy56BqZgApC-42" target="1Zy2XbYylVy56BqZgApC-163">
          <mxGeometry relative="1" as="geometry">
            <mxPoint x="1940" y="568" as="sourcePoint" />
            <mxPoint x="2130" y="568" as="targetPoint" />
          </mxGeometry>
        </mxCell>
        <mxCell id="1Zy2XbYylVy56BqZgApC-163" value="&lt;div&gt;Nginx (&lt;span style=&quot;background-color: initial;&quot;&gt;Сайт&lt;/span&gt;&lt;/div&gt;&lt;div&gt;&lt;span style=&quot;background-color: initial;&quot;&gt;React&lt;/span&gt;)&lt;/div&gt;" style="rounded=1;whiteSpace=wrap;html=1;arcSize=16;" vertex="1" parent="1">
          <mxGeometry x="1965" y="538" width="120" height="60" as="geometry" />
        </mxCell>
        <mxCell id="1Zy2XbYylVy56BqZgApC-165" value="Redis" style="shape=cylinder3;whiteSpace=wrap;html=1;boundedLbl=1;backgroundOutline=1;size=15;" vertex="1" parent="1">
          <mxGeometry x="2750" y="897" width="60" height="80" as="geometry" />
        </mxCell>
        <mxCell id="1Zy2XbYylVy56BqZgApC-167" style="edgeStyle=orthogonalEdgeStyle;rounded=0;orthogonalLoop=1;jettySize=auto;html=1;exitX=0.5;exitY=0;exitDx=0;exitDy=0;entryX=0.5;entryY=1;entryDx=0;entryDy=0;" edge="1" parent="1" source="1Zy2XbYylVy56BqZgApC-166" target="1Zy2XbYylVy56BqZgApC-168">
          <mxGeometry relative="1" as="geometry" />
        </mxCell>
        <mxCell id="1Zy2XbYylVy56BqZgApC-166" value="configSrv&lt;div&gt;(&lt;font style=&quot;font-size: 12px;&quot;&gt;&lt;span style=&quot;text-wrap: nowrap; background-color: rgb(255, 255, 255);&quot;&gt;данные&lt;br&gt;&lt;/span&gt;&lt;span style=&quot;text-wrap: nowrap; background-color: initial;&quot;&gt;&amp;nbsp;о кластере&lt;/span&gt;&lt;/font&gt;)&lt;/div&gt;" style="rounded=0;whiteSpace=wrap;html=1;" vertex="1" parent="1">
          <mxGeometry x="2829" y="788" width="120" height="60" as="geometry" />
        </mxCell>
        <mxCell id="1Zy2XbYylVy56BqZgApC-169" value="" style="edgeStyle=orthogonalEdgeStyle;rounded=0;orthogonalLoop=1;jettySize=auto;html=1;exitX=1;exitY=0.5;exitDx=0;exitDy=0;entryX=0;entryY=0.5;entryDx=0;entryDy=0;" edge="1" parent="1" source="1Zy2XbYylVy56BqZgApC-57" target="1Zy2XbYylVy56BqZgApC-168">
          <mxGeometry relative="1" as="geometry">
            <mxPoint x="2660" y="818" as="sourcePoint" />
            <mxPoint x="3002" y="676" as="targetPoint" />
          </mxGeometry>
        </mxCell>
        <mxCell id="1Zy2XbYylVy56BqZgApC-168" value="mongo&amp;nbsp;&lt;div&gt;&lt;span style=&quot;white-space-collapse: preserve;&quot; data-src-align=&quot;0:13&quot; class=&quot;EzKURWReUAB5oZgtQNkl&quot;&gt;driver&lt;/span&gt;&lt;/div&gt;" style="rounded=0;whiteSpace=wrap;html=1;" vertex="1" parent="1">
          <mxGeometry x="2830" y="626" width="115" height="100" as="geometry" />
        </mxCell>
        <mxCell id="1Zy2XbYylVy56BqZgApC-170" value="" style="whiteSpace=wrap;html=1;aspect=fixed;" vertex="1" parent="1">
          <mxGeometry x="3240" y="481" width="220" height="220" as="geometry" />
        </mxCell>
        <mxCell id="1Zy2XbYylVy56BqZgApC-171" value="MongoDB&lt;br&gt;sh1 primary" style="shape=cylinder3;whiteSpace=wrap;html=1;boundedLbl=1;backgroundOutline=1;size=15;" vertex="1" parent="1">
          <mxGeometry x="3270" y="541" width="60" height="80" as="geometry" />
        </mxCell>
        <mxCell id="1Zy2XbYylVy56BqZgApC-172" style="edgeStyle=orthogonalEdgeStyle;rounded=0;orthogonalLoop=1;jettySize=auto;html=1;exitX=0;exitY=0.5;exitDx=0;exitDy=0;exitPerimeter=0;" edge="1" parent="1" source="1Zy2XbYylVy56BqZgApC-173" target="1Zy2XbYylVy56BqZgApC-171">
          <mxGeometry relative="1" as="geometry" />
        </mxCell>
        <mxCell id="1Zy2XbYylVy56BqZgApC-173" value="MongoDB&lt;div&gt;sh1&lt;br&gt;secondary&amp;nbsp;&lt;/div&gt;" style="shape=cylinder3;whiteSpace=wrap;html=1;boundedLbl=1;backgroundOutline=1;size=15;" vertex="1" parent="1">
          <mxGeometry x="3360" y="491" width="60" height="80" as="geometry" />
        </mxCell>
        <mxCell id="1Zy2XbYylVy56BqZgApC-174" style="edgeStyle=orthogonalEdgeStyle;rounded=0;orthogonalLoop=1;jettySize=auto;html=1;exitX=0;exitY=0.5;exitDx=0;exitDy=0;exitPerimeter=0;" edge="1" parent="1" source="1Zy2XbYylVy56BqZgApC-175" target="1Zy2XbYylVy56BqZgApC-171">
          <mxGeometry relative="1" as="geometry" />
        </mxCell>
        <mxCell id="1Zy2XbYylVy56BqZgApC-175" value="MongoDB&lt;div&gt;sh1&lt;br&gt;secondary&amp;nbsp;&lt;/div&gt;" style="shape=cylinder3;whiteSpace=wrap;html=1;boundedLbl=1;backgroundOutline=1;size=15;" vertex="1" parent="1">
          <mxGeometry x="3360" y="601" width="60" height="80" as="geometry" />
        </mxCell>
        <mxCell id="1Zy2XbYylVy56BqZgApC-176" value="Shard1" style="text;html=1;align=center;verticalAlign=middle;whiteSpace=wrap;rounded=0;" vertex="1" parent="1">
          <mxGeometry x="3250" y="491" width="60" height="30" as="geometry" />
        </mxCell>
        <mxCell id="1Zy2XbYylVy56BqZgApC-177" value="" style="whiteSpace=wrap;html=1;aspect=fixed;" vertex="1" parent="1">
          <mxGeometry x="3240" y="728" width="220" height="220" as="geometry" />
        </mxCell>
        <mxCell id="1Zy2XbYylVy56BqZgApC-178" value="MongoDB&lt;div&gt;sh2&lt;br&gt;primary&lt;/div&gt;" style="shape=cylinder3;whiteSpace=wrap;html=1;boundedLbl=1;backgroundOutline=1;size=15;" vertex="1" parent="1">
          <mxGeometry x="3270" y="788" width="60" height="80" as="geometry" />
        </mxCell>
        <mxCell id="1Zy2XbYylVy56BqZgApC-179" style="edgeStyle=orthogonalEdgeStyle;rounded=0;orthogonalLoop=1;jettySize=auto;html=1;exitX=0;exitY=0.5;exitDx=0;exitDy=0;exitPerimeter=0;" edge="1" parent="1" source="1Zy2XbYylVy56BqZgApC-181" target="1Zy2XbYylVy56BqZgApC-178">
          <mxGeometry relative="1" as="geometry" />
        </mxCell>
        <mxCell id="1Zy2XbYylVy56BqZgApC-180" style="edgeStyle=orthogonalEdgeStyle;rounded=0;orthogonalLoop=1;jettySize=auto;html=1;exitX=0.5;exitY=1;exitDx=0;exitDy=0;exitPerimeter=0;startArrow=classic;startFill=1;" edge="1" parent="1" source="1Zy2XbYylVy56BqZgApC-181" target="1Zy2XbYylVy56BqZgApC-182">
          <mxGeometry relative="1" as="geometry" />
        </mxCell>
        <mxCell id="1Zy2XbYylVy56BqZgApC-181" value="MongoDB&lt;div&gt;sh2&lt;br&gt;secondary&amp;nbsp;&lt;/div&gt;" style="shape=cylinder3;whiteSpace=wrap;html=1;boundedLbl=1;backgroundOutline=1;size=15;" vertex="1" parent="1">
          <mxGeometry x="3360" y="738" width="60" height="80" as="geometry" />
        </mxCell>
        <mxCell id="1Zy2XbYylVy56BqZgApC-182" value="MongoDB&lt;div&gt;sh2&lt;br&gt;secondary&amp;nbsp;&lt;/div&gt;" style="shape=cylinder3;whiteSpace=wrap;html=1;boundedLbl=1;backgroundOutline=1;size=15;" vertex="1" parent="1">
          <mxGeometry x="3360" y="848" width="60" height="80" as="geometry" />
        </mxCell>
        <mxCell id="1Zy2XbYylVy56BqZgApC-183" value="Shard2" style="text;html=1;align=center;verticalAlign=middle;whiteSpace=wrap;rounded=0;" vertex="1" parent="1">
          <mxGeometry x="3250" y="738" width="60" height="30" as="geometry" />
        </mxCell>
        <mxCell id="1Zy2XbYylVy56BqZgApC-184" style="edgeStyle=orthogonalEdgeStyle;rounded=0;orthogonalLoop=1;jettySize=auto;html=1;exitX=0.5;exitY=0;exitDx=0;exitDy=0;exitPerimeter=0;entryX=0.5;entryY=1;entryDx=0;entryDy=0;entryPerimeter=0;startArrow=classic;startFill=1;" edge="1" parent="1" source="1Zy2XbYylVy56BqZgApC-175" target="1Zy2XbYylVy56BqZgApC-173">
          <mxGeometry relative="1" as="geometry" />
        </mxCell>
        <mxCell id="1Zy2XbYylVy56BqZgApC-185" style="edgeStyle=orthogonalEdgeStyle;rounded=0;orthogonalLoop=1;jettySize=auto;html=1;exitX=0;exitY=0.5;exitDx=0;exitDy=0;exitPerimeter=0;entryX=1;entryY=0.5;entryDx=0;entryDy=0;entryPerimeter=0;" edge="1" parent="1" source="1Zy2XbYylVy56BqZgApC-182" target="1Zy2XbYylVy56BqZgApC-178">
          <mxGeometry relative="1" as="geometry" />
        </mxCell>
        <mxCell id="1Zy2XbYylVy56BqZgApC-192" value="" style="rounded=0;whiteSpace=wrap;html=1;align=left;" vertex="1" parent="1">
          <mxGeometry x="1760" y="1247" width="1850" height="760" as="geometry" />
        </mxCell>
        <mxCell id="1Zy2XbYylVy56BqZgApC-193" value="sprint2 task 6 -&amp;nbsp;sharding + replication + redis + instans (добавил так же nginx + redis +cdn)" style="text;html=1;align=center;verticalAlign=middle;whiteSpace=wrap;rounded=0;" vertex="1" parent="1">
          <mxGeometry x="1815" y="1287" width="150" height="30" as="geometry" />
        </mxCell>
        <mxCell id="1Zy2XbYylVy56BqZgApC-194" style="edgeStyle=orthogonalEdgeStyle;rounded=0;orthogonalLoop=1;jettySize=auto;html=1;exitX=0.5;exitY=1;exitDx=0;exitDy=0;entryX=0.5;entryY=0;entryDx=0;entryDy=0;" edge="1" parent="1" source="1Zy2XbYylVy56BqZgApC-202" target="1Zy2XbYylVy56BqZgApC-201">
          <mxGeometry relative="1" as="geometry">
            <mxPoint x="2430" y="1629.5" as="sourcePoint" />
          </mxGeometry>
        </mxCell>
        <mxCell id="1Zy2XbYylVy56BqZgApC-195" style="edgeStyle=orthogonalEdgeStyle;rounded=0;orthogonalLoop=1;jettySize=auto;html=1;entryX=0;entryY=0.5;entryDx=0;entryDy=0;" edge="1" parent="1" source="1Zy2XbYylVy56BqZgApC-218" target="1Zy2XbYylVy56BqZgApC-200">
          <mxGeometry relative="1" as="geometry" />
        </mxCell>
        <mxCell id="1Zy2XbYylVy56BqZgApC-196" value="User" style="shape=umlActor;verticalLabelPosition=bottom;verticalAlign=top;html=1;outlineConnect=0;" vertex="1" parent="1">
          <mxGeometry x="1860" y="1458" width="30" height="60" as="geometry" />
        </mxCell>
        <mxCell id="1Zy2XbYylVy56BqZgApC-197" style="edgeStyle=orthogonalEdgeStyle;rounded=0;orthogonalLoop=1;jettySize=auto;html=1;entryX=0;entryY=0.5;entryDx=0;entryDy=0;exitX=0.25;exitY=1;exitDx=0;exitDy=0;" edge="1" parent="1" source="1Zy2XbYylVy56BqZgApC-200" target="1Zy2XbYylVy56BqZgApC-201">
          <mxGeometry relative="1" as="geometry" />
        </mxCell>
        <mxCell id="1Zy2XbYylVy56BqZgApC-198" style="edgeStyle=orthogonalEdgeStyle;rounded=0;orthogonalLoop=1;jettySize=auto;html=1;exitX=1;exitY=0.5;exitDx=0;exitDy=0;entryX=0;entryY=0.5;entryDx=0;entryDy=0;" edge="1" parent="1" source="1Zy2XbYylVy56BqZgApC-200" target="1Zy2XbYylVy56BqZgApC-207">
          <mxGeometry relative="1" as="geometry">
            <mxPoint x="2430" y="1812" as="targetPoint" />
          </mxGeometry>
        </mxCell>
        <mxCell id="1Zy2XbYylVy56BqZgApC-199" style="edgeStyle=orthogonalEdgeStyle;rounded=0;orthogonalLoop=1;jettySize=auto;html=1;exitX=1;exitY=0.5;exitDx=0;exitDy=0;entryX=0;entryY=0.5;entryDx=0;entryDy=0;" edge="1" parent="1" source="1Zy2XbYylVy56BqZgApC-200" target="1Zy2XbYylVy56BqZgApC-202">
          <mxGeometry relative="1" as="geometry" />
        </mxCell>
        <mxCell id="1Zy2XbYylVy56BqZgApC-200" value="APISIX&lt;div&gt;Gateway&lt;/div&gt;" style="rounded=1;whiteSpace=wrap;html=1;arcSize=16;" vertex="1" parent="1">
          <mxGeometry x="2130" y="1458" width="120" height="60" as="geometry" />
        </mxCell>
        <mxCell id="1Zy2XbYylVy56BqZgApC-201" value="Consul" style="rounded=1;whiteSpace=wrap;html=1;" vertex="1" parent="1">
          <mxGeometry x="2179" y="1657" width="120" height="60" as="geometry" />
        </mxCell>
        <mxCell id="1Zy2XbYylVy56BqZgApC-202" value="" style="rounded=0;whiteSpace=wrap;html=1;" vertex="1" parent="1">
          <mxGeometry x="2430" y="1371" width="250" height="120" as="geometry" />
        </mxCell>
        <mxCell id="1Zy2XbYylVy56BqZgApC-203" value="Instance1" style="text;html=1;align=center;verticalAlign=middle;whiteSpace=wrap;rounded=0;" vertex="1" parent="1">
          <mxGeometry x="2450" y="1391" width="60" height="30" as="geometry" />
        </mxCell>
        <mxCell id="1Zy2XbYylVy56BqZgApC-204" style="edgeStyle=orthogonalEdgeStyle;rounded=0;orthogonalLoop=1;jettySize=auto;html=1;exitX=1;exitY=0.5;exitDx=0;exitDy=0;entryX=0;entryY=0.5;entryDx=0;entryDy=0;" edge="1" parent="1" source="1Zy2XbYylVy56BqZgApC-205" target="1Zy2XbYylVy56BqZgApC-223">
          <mxGeometry relative="1" as="geometry" />
        </mxCell>
        <mxCell id="1Zy2XbYylVy56BqZgApC-205" value="pymongo-api" style="rounded=1;whiteSpace=wrap;html=1;" vertex="1" parent="1">
          <mxGeometry x="2540" y="1401" width="120" height="60" as="geometry" />
        </mxCell>
        <mxCell id="1Zy2XbYylVy56BqZgApC-206" style="edgeStyle=orthogonalEdgeStyle;rounded=0;orthogonalLoop=1;jettySize=auto;html=1;exitX=0.5;exitY=0;exitDx=0;exitDy=0;entryX=0.5;entryY=0;entryDx=0;entryDy=0;" edge="1" parent="1" source="1Zy2XbYylVy56BqZgApC-207" target="1Zy2XbYylVy56BqZgApC-201">
          <mxGeometry relative="1" as="geometry">
            <Array as="points">
              <mxPoint x="2555" y="1577" />
              <mxPoint x="2239" y="1577" />
            </Array>
          </mxGeometry>
        </mxCell>
        <mxCell id="1Zy2XbYylVy56BqZgApC-207" value="" style="rounded=0;whiteSpace=wrap;html=1;" vertex="1" parent="1">
          <mxGeometry x="2430" y="1678" width="250" height="120" as="geometry" />
        </mxCell>
        <mxCell id="1Zy2XbYylVy56BqZgApC-208" value="Instance2" style="text;html=1;align=center;verticalAlign=middle;whiteSpace=wrap;rounded=0;" vertex="1" parent="1">
          <mxGeometry x="2450" y="1698" width="60" height="30" as="geometry" />
        </mxCell>
        <mxCell id="1Zy2XbYylVy56BqZgApC-209" style="edgeStyle=orthogonalEdgeStyle;rounded=0;orthogonalLoop=1;jettySize=auto;html=1;exitX=1;exitY=0.5;exitDx=0;exitDy=0;entryX=0;entryY=0.5;entryDx=0;entryDy=0;" edge="1" parent="1" source="1Zy2XbYylVy56BqZgApC-223" target="1Zy2XbYylVy56BqZgApC-214">
          <mxGeometry relative="1" as="geometry" />
        </mxCell>
        <mxCell id="1Zy2XbYylVy56BqZgApC-210" style="edgeStyle=orthogonalEdgeStyle;rounded=0;orthogonalLoop=1;jettySize=auto;html=1;exitX=1;exitY=0.5;exitDx=0;exitDy=0;entryX=0;entryY=0;entryDx=0;entryDy=52.5;entryPerimeter=0;" edge="1" parent="1" source="1Zy2XbYylVy56BqZgApC-211" target="1Zy2XbYylVy56BqZgApC-219">
          <mxGeometry relative="1" as="geometry" />
        </mxCell>
        <mxCell id="1Zy2XbYylVy56BqZgApC-211" value="pymongo-api" style="rounded=1;whiteSpace=wrap;html=1;" vertex="1" parent="1">
          <mxGeometry x="2540" y="1708" width="120" height="60" as="geometry" />
        </mxCell>
        <mxCell id="1Zy2XbYylVy56BqZgApC-212" value="Redis" style="shape=cylinder3;whiteSpace=wrap;html=1;boundedLbl=1;backgroundOutline=1;size=15;" vertex="1" parent="1">
          <mxGeometry x="2780" y="1347" width="60" height="80" as="geometry" />
        </mxCell>
        <mxCell id="1Zy2XbYylVy56BqZgApC-213" style="edgeStyle=orthogonalEdgeStyle;rounded=0;orthogonalLoop=1;jettySize=auto;html=1;entryX=0;entryY=0.5;entryDx=0;entryDy=0;" edge="1" parent="1" source="1Zy2XbYylVy56BqZgApC-214" target="1Zy2XbYylVy56BqZgApC-231">
          <mxGeometry relative="1" as="geometry">
            <mxPoint x="3192" y="1907" as="targetPoint" />
          </mxGeometry>
        </mxCell>
        <mxCell id="1Zy2XbYylVy56BqZgApC-214" value="mongo router&amp;nbsp;" style="rounded=0;whiteSpace=wrap;html=1;" vertex="1" parent="1">
          <mxGeometry x="3002" y="1501" width="115" height="190" as="geometry" />
        </mxCell>
        <mxCell id="1Zy2XbYylVy56BqZgApC-215" style="edgeStyle=orthogonalEdgeStyle;rounded=0;orthogonalLoop=1;jettySize=auto;html=1;entryX=0;entryY=0.5;entryDx=0;entryDy=0;" edge="1" parent="1" source="1Zy2XbYylVy56BqZgApC-214" target="1Zy2XbYylVy56BqZgApC-224">
          <mxGeometry relative="1" as="geometry">
            <mxPoint x="3206.7400000000002" y="1654.8999999999996" as="targetPoint" />
          </mxGeometry>
        </mxCell>
        <mxCell id="1Zy2XbYylVy56BqZgApC-216" style="edgeStyle=orthogonalEdgeStyle;rounded=0;orthogonalLoop=1;jettySize=auto;html=1;exitX=1;exitY=0.5;exitDx=0;exitDy=0;" edge="1" parent="1" source="1Zy2XbYylVy56BqZgApC-205" target="1Zy2XbYylVy56BqZgApC-212">
          <mxGeometry relative="1" as="geometry" />
        </mxCell>
        <mxCell id="1Zy2XbYylVy56BqZgApC-217" value="" style="edgeStyle=orthogonalEdgeStyle;rounded=0;orthogonalLoop=1;jettySize=auto;html=1;entryX=0;entryY=0.5;entryDx=0;entryDy=0;" edge="1" parent="1" source="1Zy2XbYylVy56BqZgApC-196" target="1Zy2XbYylVy56BqZgApC-218">
          <mxGeometry relative="1" as="geometry">
            <mxPoint x="1940" y="1488" as="sourcePoint" />
            <mxPoint x="2130" y="1488" as="targetPoint" />
          </mxGeometry>
        </mxCell>
        <mxCell id="1Zy2XbYylVy56BqZgApC-218" value="&lt;div&gt;Nginx (&lt;span style=&quot;background-color: initial;&quot;&gt;Сайт&lt;/span&gt;&lt;/div&gt;&lt;div&gt;&lt;span style=&quot;background-color: initial;&quot;&gt;React&lt;/span&gt;)&lt;/div&gt;" style="rounded=1;whiteSpace=wrap;html=1;arcSize=16;" vertex="1" parent="1">
          <mxGeometry x="1965" y="1458" width="120" height="60" as="geometry" />
        </mxCell>
        <mxCell id="1Zy2XbYylVy56BqZgApC-219" value="Redis" style="shape=cylinder3;whiteSpace=wrap;html=1;boundedLbl=1;backgroundOutline=1;size=15;" vertex="1" parent="1">
          <mxGeometry x="2750" y="1817" width="60" height="80" as="geometry" />
        </mxCell>
        <mxCell id="1Zy2XbYylVy56BqZgApC-220" style="edgeStyle=orthogonalEdgeStyle;rounded=0;orthogonalLoop=1;jettySize=auto;html=1;exitX=0.5;exitY=0;exitDx=0;exitDy=0;entryX=0.5;entryY=1;entryDx=0;entryDy=0;" edge="1" parent="1" source="1Zy2XbYylVy56BqZgApC-221" target="1Zy2XbYylVy56BqZgApC-223">
          <mxGeometry relative="1" as="geometry" />
        </mxCell>
        <mxCell id="1Zy2XbYylVy56BqZgApC-221" value="configSrv&lt;div&gt;(&lt;font style=&quot;font-size: 12px;&quot;&gt;&lt;span style=&quot;text-wrap: nowrap; background-color: rgb(255, 255, 255);&quot;&gt;данные&lt;br&gt;&lt;/span&gt;&lt;span style=&quot;text-wrap: nowrap; background-color: initial;&quot;&gt;&amp;nbsp;о кластере&lt;/span&gt;&lt;/font&gt;)&lt;/div&gt;" style="rounded=0;whiteSpace=wrap;html=1;" vertex="1" parent="1">
          <mxGeometry x="2829" y="1708" width="120" height="60" as="geometry" />
        </mxCell>
        <mxCell id="1Zy2XbYylVy56BqZgApC-222" value="" style="edgeStyle=orthogonalEdgeStyle;rounded=0;orthogonalLoop=1;jettySize=auto;html=1;exitX=1;exitY=0.5;exitDx=0;exitDy=0;entryX=0;entryY=0.5;entryDx=0;entryDy=0;" edge="1" parent="1" source="1Zy2XbYylVy56BqZgApC-211" target="1Zy2XbYylVy56BqZgApC-223">
          <mxGeometry relative="1" as="geometry">
            <mxPoint x="2660" y="1738" as="sourcePoint" />
            <mxPoint x="3002" y="1596" as="targetPoint" />
          </mxGeometry>
        </mxCell>
        <mxCell id="1Zy2XbYylVy56BqZgApC-223" value="mongo&amp;nbsp;&lt;div&gt;&lt;span style=&quot;white-space-collapse: preserve;&quot; data-src-align=&quot;0:13&quot; class=&quot;EzKURWReUAB5oZgtQNkl&quot;&gt;driver&lt;/span&gt;&lt;/div&gt;" style="rounded=0;whiteSpace=wrap;html=1;" vertex="1" parent="1">
          <mxGeometry x="2830" y="1546" width="115" height="100" as="geometry" />
        </mxCell>
        <mxCell id="1Zy2XbYylVy56BqZgApC-224" value="" style="whiteSpace=wrap;html=1;aspect=fixed;" vertex="1" parent="1">
          <mxGeometry x="3240" y="1401" width="220" height="220" as="geometry" />
        </mxCell>
        <mxCell id="1Zy2XbYylVy56BqZgApC-225" value="MongoDB&lt;br&gt;sh1 primary" style="shape=cylinder3;whiteSpace=wrap;html=1;boundedLbl=1;backgroundOutline=1;size=15;" vertex="1" parent="1">
          <mxGeometry x="3270" y="1461" width="60" height="80" as="geometry" />
        </mxCell>
        <mxCell id="1Zy2XbYylVy56BqZgApC-226" style="edgeStyle=orthogonalEdgeStyle;rounded=0;orthogonalLoop=1;jettySize=auto;html=1;exitX=0;exitY=0.5;exitDx=0;exitDy=0;exitPerimeter=0;" edge="1" parent="1" source="1Zy2XbYylVy56BqZgApC-227" target="1Zy2XbYylVy56BqZgApC-225">
          <mxGeometry relative="1" as="geometry" />
        </mxCell>
        <mxCell id="1Zy2XbYylVy56BqZgApC-227" value="MongoDB&lt;div&gt;sh1&lt;br&gt;secondary&amp;nbsp;&lt;/div&gt;" style="shape=cylinder3;whiteSpace=wrap;html=1;boundedLbl=1;backgroundOutline=1;size=15;" vertex="1" parent="1">
          <mxGeometry x="3360" y="1411" width="60" height="80" as="geometry" />
        </mxCell>
        <mxCell id="1Zy2XbYylVy56BqZgApC-228" style="edgeStyle=orthogonalEdgeStyle;rounded=0;orthogonalLoop=1;jettySize=auto;html=1;exitX=0;exitY=0.5;exitDx=0;exitDy=0;exitPerimeter=0;" edge="1" parent="1" source="1Zy2XbYylVy56BqZgApC-229" target="1Zy2XbYylVy56BqZgApC-225">
          <mxGeometry relative="1" as="geometry" />
        </mxCell>
        <mxCell id="1Zy2XbYylVy56BqZgApC-229" value="MongoDB&lt;div&gt;sh1&lt;br&gt;secondary&amp;nbsp;&lt;/div&gt;" style="shape=cylinder3;whiteSpace=wrap;html=1;boundedLbl=1;backgroundOutline=1;size=15;" vertex="1" parent="1">
          <mxGeometry x="3360" y="1521" width="60" height="80" as="geometry" />
        </mxCell>
        <mxCell id="1Zy2XbYylVy56BqZgApC-230" value="Shard1" style="text;html=1;align=center;verticalAlign=middle;whiteSpace=wrap;rounded=0;" vertex="1" parent="1">
          <mxGeometry x="3250" y="1411" width="60" height="30" as="geometry" />
        </mxCell>
        <mxCell id="1Zy2XbYylVy56BqZgApC-231" value="" style="whiteSpace=wrap;html=1;aspect=fixed;" vertex="1" parent="1">
          <mxGeometry x="3240" y="1648" width="220" height="220" as="geometry" />
        </mxCell>
        <mxCell id="1Zy2XbYylVy56BqZgApC-232" value="MongoDB&lt;div&gt;sh2&lt;br&gt;primary&lt;/div&gt;" style="shape=cylinder3;whiteSpace=wrap;html=1;boundedLbl=1;backgroundOutline=1;size=15;" vertex="1" parent="1">
          <mxGeometry x="3270" y="1708" width="60" height="80" as="geometry" />
        </mxCell>
        <mxCell id="1Zy2XbYylVy56BqZgApC-233" style="edgeStyle=orthogonalEdgeStyle;rounded=0;orthogonalLoop=1;jettySize=auto;html=1;exitX=0;exitY=0.5;exitDx=0;exitDy=0;exitPerimeter=0;" edge="1" parent="1" source="1Zy2XbYylVy56BqZgApC-235" target="1Zy2XbYylVy56BqZgApC-232">
          <mxGeometry relative="1" as="geometry" />
        </mxCell>
        <mxCell id="1Zy2XbYylVy56BqZgApC-234" style="edgeStyle=orthogonalEdgeStyle;rounded=0;orthogonalLoop=1;jettySize=auto;html=1;exitX=0.5;exitY=1;exitDx=0;exitDy=0;exitPerimeter=0;startArrow=classic;startFill=1;" edge="1" parent="1" source="1Zy2XbYylVy56BqZgApC-235" target="1Zy2XbYylVy56BqZgApC-236">
          <mxGeometry relative="1" as="geometry" />
        </mxCell>
        <mxCell id="1Zy2XbYylVy56BqZgApC-235" value="MongoDB&lt;div&gt;sh2&lt;br&gt;secondary&amp;nbsp;&lt;/div&gt;" style="shape=cylinder3;whiteSpace=wrap;html=1;boundedLbl=1;backgroundOutline=1;size=15;" vertex="1" parent="1">
          <mxGeometry x="3360" y="1658" width="60" height="80" as="geometry" />
        </mxCell>
        <mxCell id="1Zy2XbYylVy56BqZgApC-236" value="MongoDB&lt;div&gt;sh2&lt;br&gt;secondary&amp;nbsp;&lt;/div&gt;" style="shape=cylinder3;whiteSpace=wrap;html=1;boundedLbl=1;backgroundOutline=1;size=15;" vertex="1" parent="1">
          <mxGeometry x="3360" y="1768" width="60" height="80" as="geometry" />
        </mxCell>
        <mxCell id="1Zy2XbYylVy56BqZgApC-237" value="Shard2" style="text;html=1;align=center;verticalAlign=middle;whiteSpace=wrap;rounded=0;" vertex="1" parent="1">
          <mxGeometry x="3250" y="1658" width="60" height="30" as="geometry" />
        </mxCell>
        <mxCell id="1Zy2XbYylVy56BqZgApC-238" style="edgeStyle=orthogonalEdgeStyle;rounded=0;orthogonalLoop=1;jettySize=auto;html=1;exitX=0.5;exitY=0;exitDx=0;exitDy=0;exitPerimeter=0;entryX=0.5;entryY=1;entryDx=0;entryDy=0;entryPerimeter=0;startArrow=classic;startFill=1;" edge="1" parent="1" source="1Zy2XbYylVy56BqZgApC-229" target="1Zy2XbYylVy56BqZgApC-227">
          <mxGeometry relative="1" as="geometry" />
        </mxCell>
        <mxCell id="1Zy2XbYylVy56BqZgApC-239" style="edgeStyle=orthogonalEdgeStyle;rounded=0;orthogonalLoop=1;jettySize=auto;html=1;exitX=0;exitY=0.5;exitDx=0;exitDy=0;exitPerimeter=0;entryX=1;entryY=0.5;entryDx=0;entryDy=0;entryPerimeter=0;" edge="1" parent="1" source="1Zy2XbYylVy56BqZgApC-236" target="1Zy2XbYylVy56BqZgApC-232">
          <mxGeometry relative="1" as="geometry" />
        </mxCell>
        <mxCell id="1Zy2XbYylVy56BqZgApC-240" style="edgeStyle=orthogonalEdgeStyle;rounded=0;orthogonalLoop=1;jettySize=auto;html=1;exitX=0.07;exitY=0.4;exitDx=0;exitDy=0;exitPerimeter=0;" edge="1" parent="1" source="1Zy2XbYylVy56BqZgApC-241" target="1Zy2XbYylVy56BqZgApC-218">
          <mxGeometry relative="1" as="geometry">
            <Array as="points">
              <mxPoint x="1890" y="1757" />
              <mxPoint x="1890" y="1567" />
              <mxPoint x="2025" y="1567" />
            </Array>
          </mxGeometry>
        </mxCell>
        <mxCell id="1Zy2XbYylVy56BqZgApC-241" value="CDN регион 2" style="ellipse;shape=cloud;whiteSpace=wrap;html=1;" vertex="1" parent="1">
          <mxGeometry x="1880" y="1717" width="250" height="100" as="geometry" />
        </mxCell>
        <mxCell id="1Zy2XbYylVy56BqZgApC-242" style="edgeStyle=orthogonalEdgeStyle;rounded=0;orthogonalLoop=1;jettySize=auto;html=1;exitX=0.07;exitY=0.4;exitDx=0;exitDy=0;exitPerimeter=0;entryX=0.5;entryY=1;entryDx=0;entryDy=0;" edge="1" parent="1" source="1Zy2XbYylVy56BqZgApC-243" target="1Zy2XbYylVy56BqZgApC-218">
          <mxGeometry relative="1" as="geometry">
            <Array as="points">
              <mxPoint x="1890" y="1647" />
              <mxPoint x="1890" y="1567" />
              <mxPoint x="2025" y="1567" />
            </Array>
          </mxGeometry>
        </mxCell>
        <mxCell id="1Zy2XbYylVy56BqZgApC-243" value="CDN регион 1" style="ellipse;shape=cloud;whiteSpace=wrap;html=1;" vertex="1" parent="1">
          <mxGeometry x="1881" y="1607" width="239" height="100" as="geometry" />
        </mxCell>
        <mxCell id="1Zy2XbYylVy56BqZgApC-244" style="edgeStyle=orthogonalEdgeStyle;rounded=0;orthogonalLoop=1;jettySize=auto;html=1;exitX=0.07;exitY=0.4;exitDx=0;exitDy=0;exitPerimeter=0;entryX=0.5;entryY=1;entryDx=0;entryDy=0;" edge="1" parent="1" source="1Zy2XbYylVy56BqZgApC-245" target="1Zy2XbYylVy56BqZgApC-218">
          <mxGeometry relative="1" as="geometry">
            <Array as="points">
              <mxPoint x="1890" y="1885" />
              <mxPoint x="1890" y="1567" />
              <mxPoint x="2025" y="1567" />
            </Array>
          </mxGeometry>
        </mxCell>
        <mxCell id="1Zy2XbYylVy56BqZgApC-245" value="CDN регион 3" style="ellipse;shape=cloud;whiteSpace=wrap;html=1;" vertex="1" parent="1">
          <mxGeometry x="1884" y="1837" width="234" height="100" as="geometry" />
        </mxCell>
      </root>
    </mxGraphModel>
  </diagram>
</mxfile>
